<?xml version="1.0" encoding="utf-8"?>
<!-- Generator: Adobe Illustrator 16.0.4, SVG Export Plug-In . SVG Version: 6.00 Build 0)  -->
<!DOCTYPE svg PUBLIC "-//W3C//DTD SVG 1.1//EN" "http://www.w3.org/Graphics/SVG/1.1/DTD/svg11.dtd">
<svg version="1.1" id="Layer_1" xmlns="http://www.w3.org/2000/svg" xmlns:xlink="http://www.w3.org/1999/xlink" x="0px" y="0px"
	 width="600px" height="200px" viewBox="0 0 600 200" style="enable-background:new 0 0 600 200;" xml:space="preserve">
<title>alphago-logo</title>
<g id="_Group_">
	<path id="_Compound_Path_" style="fill:#FFFFFF;" d="M22.771,69.69h11.007l22.771,60.615H45.968l-5.503-15.576H16.084
		l-5.503,15.576H-0.023L22.771,69.69z M37.257,106.006l-6.35-17.859l-2.367-7.101h-0.509l-2.367,7.101l-6.35,17.859H37.257z"/>
	<path id="_Compound_Path_2" style="fill:#FFFFFF;" d="M105.221,77.3h9.995v43.53h22.428v9.469h-32.423V77.3z"/>
	<path id="_Compound_Path_3" style="fill:#FFFFFF;" d="M181.771,130.305V77.3h18.653c4.7-0.094,9.267,1.568,12.806,4.663
		c6.685,6.249,7.039,16.734,0.79,23.42c-0.254,0.271-0.518,0.535-0.79,0.789c-3.539,3.095-8.105,4.758-12.806,4.663h-8.658v19.47
		H181.771z M200.584,101.355c5.255,0,7.924-3.48,7.924-7.326c0.052-1.889-0.638-3.722-1.923-5.107
		c-1.332-1.332-3.332-2.148-5.995-2.148h-8.823v14.587h8.817V101.355z"/>
	<path id="_Compound_Path_4" style="fill:#FFFFFF;" d="M262.612,77.3h9.995v21.173h22.286V77.3h9.996v53.005h-9.996v-22.357h-22.286
		v22.357h-9.995V77.3z"/>
	<path id="_Compound_Path_5" style="fill:#FFFFFF;" d="M368.053,77.3h11.403l19.913,53.005H388.32l-4.367-12.658H363.52
		l-4.344,12.658h-11.054L368.053,77.3z M380.711,108.469l-4.734-13.25l-1.947-6.438h-0.592l-1.923,6.438l-4.734,13.25h13.919
		H380.711z"/>
	<path id="_Compound_Path_6" style="fill:#FFFFFF;" d="M472.049,97.456h29.541c0.312,1.619,0.483,3.263,0.509,4.912
		c0,7.195-2.029,14.729-7.45,20.232c-5.503,5.758-12.953,9.06-22.517,9.06c-8.362,0.077-16.418-3.149-22.416-8.978
		c-12.413-12.576-12.413-32.793,0-45.37c6.003-5.831,14.065-9.054,22.434-8.971c9.226,0,17.351,3.468,22.688,9.314l-6.687,6.687
		c-3.978-4.402-9.314-6.858-16.085-6.858c-5.7-0.015-11.188,2.168-15.32,6.095c-4.065,3.894-6.604,9.563-6.604,16.421
		s2.539,12.427,6.604,16.338c4.144,3.962,9.653,6.175,15.386,6.179c7.788,0,12.19-2.793,15.492-5.917
		c2.367-2.285,4.314-6.096,4.912-10.498h-20.487V97.456z"/>
	<path id="_Compound_Path_7" style="fill:#FFFFFF;" d="M572.312,131.488c-15.078,0.213-27.475-11.836-27.688-26.914
		c-0.004-0.259-0.004-0.517,0-0.775c-0.061-7.353,2.788-14.431,7.924-19.693c11.016-10.673,28.514-10.673,39.529,0
		c5.145,5.258,8.001,12.337,7.947,19.693c0.215,15.078-11.835,27.475-26.913,27.689
		C572.844,131.492,572.578,131.492,572.312,131.488z M572.312,122.02c4.696,0.053,9.223-1.758,12.587-5.036
		c3.184-3.184,5.106-7.775,5.106-13.179c0-5.402-1.923-9.995-5.106-13.178c-3.364-3.278-7.891-5.088-12.587-5.036
		c-4.677-0.068-9.185,1.746-12.51,5.036c-3.255,3.184-5.184,7.77-5.184,13.178c0,5.409,1.923,9.995,5.184,13.179
		c3.326,3.286,7.834,5.099,12.51,5.03V122.02z"/>
</g>
</svg>
