<?xml version="1.0" encoding="utf-8"?>
<!-- Generator: Adobe Illustrator 16.0.4, SVG Export Plug-In . SVG Version: 6.00 Build 0)  -->
<!DOCTYPE svg PUBLIC "-//W3C//DTD SVG 1.1//EN" "http://www.w3.org/Graphics/SVG/1.1/DTD/svg11.dtd">
<svg version="1.1" id="Layer_1" xmlns="http://www.w3.org/2000/svg" xmlns:xlink="http://www.w3.org/1999/xlink" x="0px" y="0px"
	 width="135.02px" height="24.846px" viewBox="0 0 135.02 24.846" style="enable-background:new 0 0 135.02 24.846;"
	 xml:space="preserve">
<rect x="-2" y="2.106" style="fill:none;" width="157.766" height="26.086"/>
<g style="enable-background:new    ;">
	<path d="M4.02,23.094V4.356H0.094v-1.43h9.668v1.43H5.802v18.738H4.02z"/>
	<path d="M10.243,16.438v-0.727c0-0.625,0.004-1.104,0.012-1.436s0.033-0.785,0.076-1.359s0.109-1.021,0.199-1.342
		s0.225-0.688,0.404-1.102s0.4-0.729,0.662-0.943s0.592-0.4,0.99-0.557s0.855-0.234,1.371-0.234s0.973,0.078,1.371,0.234
		s0.729,0.342,0.99,0.557s0.482,0.529,0.662,0.943s0.314,0.781,0.404,1.102s0.156,0.768,0.199,1.342s0.068,1.027,0.076,1.359
		s0.012,0.811,0.012,1.436v0.727c0,0.523-0.002,0.918-0.006,1.184s-0.016,0.635-0.035,1.107s-0.051,0.838-0.094,1.096
		s-0.107,0.578-0.193,0.961s-0.189,0.68-0.311,0.891s-0.275,0.443-0.463,0.697s-0.402,0.445-0.645,0.574s-0.529,0.238-0.861,0.328
		s-0.701,0.135-1.107,0.135s-0.775-0.045-1.107-0.135s-0.619-0.199-0.861-0.328s-0.457-0.32-0.645-0.574s-0.342-0.486-0.463-0.697
		s-0.225-0.508-0.311-0.891s-0.15-0.703-0.193-0.961s-0.074-0.623-0.094-1.096s-0.031-0.842-0.035-1.107
		S10.243,16.961,10.243,16.438z M12.001,15.711v0.727c0,2.203,0.129,3.719,0.387,4.547s0.781,1.242,1.57,1.242
		s1.312-0.414,1.57-1.242s0.387-2.344,0.387-4.547v-0.727c0-0.742-0.008-1.367-0.023-1.875s-0.049-0.994-0.1-1.459
		s-0.121-0.838-0.211-1.119s-0.207-0.529-0.352-0.744s-0.32-0.367-0.527-0.457s-0.455-0.135-0.744-0.135s-0.537,0.045-0.744,0.135
		s-0.385,0.242-0.533,0.457s-0.266,0.461-0.352,0.738s-0.154,0.652-0.205,1.125s-0.084,0.959-0.1,1.459S12.001,14.961,12.001,15.711
		z"/>
	<path d="M25.384,23.094V2.926h1.781v9.129h6.211V2.926h1.781v20.168h-1.781v-9.797h-6.211v9.797H25.384z"/>
	<path d="M38.134,16.625v-1.957c0.008-0.977,0.078-1.822,0.211-2.537s0.307-1.287,0.521-1.717s0.492-0.771,0.832-1.025
		s0.689-0.426,1.049-0.516s0.781-0.135,1.266-0.135c1.258,0,2.162,0.445,2.713,1.336s0.826,2.297,0.826,4.219
		c0,0.586-0.008,1.066-0.023,1.441h-5.625v2.145c0,0.922,0.045,1.678,0.135,2.268s0.232,1.033,0.428,1.33s0.41,0.496,0.645,0.598
		s0.531,0.152,0.891,0.152c0.523,0,0.963-0.264,1.318-0.791s0.537-1.408,0.545-2.643h1.641c-0.047,0.531-0.109,1.004-0.188,1.418
		s-0.201,0.828-0.369,1.242s-0.375,0.758-0.621,1.031s-0.564,0.496-0.955,0.668s-0.84,0.258-1.348,0.258
		c-0.992,0-1.764-0.197-2.314-0.592s-0.955-1.082-1.213-2.062S38.118,18.399,38.134,16.625z M39.915,14.867h3.891
		c-0.008-0.312-0.008-0.629,0-0.949s0.004-0.643-0.012-0.967s-0.037-0.635-0.064-0.932s-0.08-0.572-0.158-0.826
		s-0.176-0.475-0.293-0.662s-0.277-0.336-0.48-0.445s-0.438-0.164-0.703-0.164c-0.43,0-0.783,0.078-1.061,0.234
		s-0.492,0.34-0.645,0.551s-0.264,0.566-0.334,1.066s-0.111,0.939-0.123,1.318S39.915,14.063,39.915,14.867z"/>
	<path d="M46.817,23.094l3.023-7.336l-3-6.703h1.816l2.297,5.848l2.297-5.848h1.816l-3.012,6.703l3.023,7.336h-1.711l-2.414-6.258
		l-2.414,6.258H46.817z"/>
	<path d="M67.137,23.094l-0.223-1.699c-0.375,0.656-0.838,1.156-1.389,1.5S64.45,23.41,63.95,23.41
		c-0.727,0-1.371-0.287-1.934-0.861s-0.844-1.326-0.844-2.256c0-0.25,0.004-0.451,0.012-0.604s0.029-0.35,0.064-0.592
		s0.086-0.445,0.152-0.609s0.164-0.365,0.293-0.604s0.287-0.449,0.475-0.633s0.422-0.395,0.703-0.633s0.605-0.465,0.973-0.68
		s0.799-0.445,1.295-0.691s1.045-0.494,1.646-0.744v-0.117c0-0.797-0.035-1.479-0.105-2.045s-0.156-1.004-0.258-1.312
		s-0.232-0.549-0.393-0.721s-0.311-0.279-0.451-0.322s-0.312-0.064-0.516-0.064c-0.211,0-0.398,0.029-0.562,0.088
		s-0.34,0.172-0.527,0.34s-0.344,0.441-0.469,0.82s-0.203,0.854-0.234,1.424v0.082h-1.828c0.094-1.227,0.455-2.189,1.084-2.889
		s1.455-1.049,2.479-1.049c0.57,0,1.074,0.092,1.512,0.275s0.783,0.418,1.037,0.703s0.459,0.627,0.615,1.025s0.262,0.785,0.316,1.16
		s0.082,0.777,0.082,1.207v6.75c0,0.492,0.018,1.008,0.053,1.547s0.072,0.953,0.111,1.242l0.047,0.445H67.137z M66.786,20.235
		v-4.945c-0.57,0.398-1.02,0.719-1.348,0.961s-0.674,0.525-1.037,0.85s-0.637,0.619-0.82,0.885s-0.336,0.568-0.457,0.908
		s-0.182,0.697-0.182,1.072c0,0.672,0.141,1.17,0.422,1.494s0.613,0.486,0.996,0.486c0.445,0,0.896-0.16,1.354-0.48
		S66.528,20.735,66.786,20.235z"/>
	<path d="M71.169,23.094V9.055h1.758v1.324c0.375-0.547,0.824-0.957,1.348-1.23s1.066-0.41,1.629-0.41
		c0.695,0,1.307,0.291,1.834,0.873s0.791,1.4,0.791,2.455v11.027h-1.781V12.031c0-0.695-0.137-1.201-0.41-1.518
		s-0.633-0.475-1.078-0.475c-0.367,0-0.76,0.127-1.178,0.381s-0.803,0.6-1.154,1.037v11.637H71.169z"/>
	<path d="M86.825,23.094V21.77c-0.703,1.094-1.648,1.641-2.836,1.641c-0.211,0-0.402-0.018-0.574-0.053s-0.363-0.109-0.574-0.223
		s-0.398-0.266-0.562-0.457s-0.328-0.457-0.492-0.797s-0.299-0.738-0.404-1.195s-0.191-1.025-0.258-1.705s-0.1-1.441-0.1-2.285
		v-1.113c0-1.211,0.064-2.252,0.193-3.123s0.287-1.541,0.475-2.01s0.43-0.838,0.727-1.107s0.57-0.438,0.82-0.504
		s0.543-0.1,0.879-0.1c0.492,0,0.975,0.139,1.447,0.416s0.893,0.686,1.26,1.225V2.926h1.758v20.168H86.825z M86.825,20.692v-9.258
		c-0.836-0.93-1.621-1.395-2.355-1.395c-0.172,0-0.314,0.016-0.428,0.047s-0.242,0.102-0.387,0.211s-0.262,0.287-0.352,0.533
		s-0.18,0.566-0.27,0.961s-0.154,0.912-0.193,1.553s-0.059,1.391-0.059,2.25v1.113c0,0.734,0.018,1.387,0.053,1.957
		s0.08,1.043,0.135,1.418s0.129,0.693,0.223,0.955s0.184,0.463,0.27,0.604s0.197,0.246,0.334,0.316s0.254,0.113,0.352,0.129
		s0.225,0.023,0.381,0.023c0.352,0,0.734-0.131,1.148-0.393S86.473,21.114,86.825,20.692z"/>
	<path d="M96.458,23.094V2.926h4.336c0.695,0,1.312,0.098,1.852,0.293s0.977,0.453,1.312,0.773s0.611,0.707,0.826,1.16
		s0.363,0.914,0.445,1.383s0.123,0.973,0.123,1.512c0,0.836-0.193,1.652-0.58,2.449s-0.92,1.352-1.6,1.664
		c0.477,0.195,0.891,0.482,1.242,0.861s0.621,0.803,0.809,1.271s0.324,0.936,0.41,1.4s0.129,0.928,0.129,1.389
		c0,0.703-0.033,1.324-0.1,1.863s-0.199,1.08-0.398,1.623s-0.463,0.99-0.791,1.342s-0.773,0.637-1.336,0.855
		s-1.227,0.328-1.992,0.328H96.458z M98.239,11.586h2.859c0.438,0,0.812-0.096,1.125-0.287s0.555-0.457,0.727-0.797
		s0.297-0.709,0.375-1.107s0.117-0.836,0.117-1.312c0-2.531-0.961-3.797-2.883-3.797h-2.32V11.586z M98.239,21.735h3.188
		c0.406,0,0.762-0.084,1.066-0.252s0.551-0.389,0.738-0.662s0.338-0.617,0.451-1.031s0.191-0.836,0.234-1.266
		s0.064-0.91,0.064-1.441c0-0.477-0.02-0.902-0.059-1.277s-0.115-0.746-0.229-1.113s-0.262-0.674-0.445-0.92
		s-0.43-0.443-0.738-0.592s-0.67-0.223-1.084-0.223h-3.188V21.735z"/>
	<path d="M113.45,23.094l-0.223-1.699c-0.375,0.656-0.838,1.156-1.389,1.5s-1.076,0.516-1.576,0.516
		c-0.727,0-1.371-0.287-1.934-0.861s-0.844-1.326-0.844-2.256c0-0.25,0.004-0.451,0.012-0.604s0.029-0.35,0.064-0.592
		s0.086-0.445,0.152-0.609s0.164-0.365,0.293-0.604s0.287-0.449,0.475-0.633s0.422-0.395,0.703-0.633s0.605-0.465,0.973-0.68
		s0.799-0.445,1.295-0.691s1.045-0.494,1.646-0.744v-0.117c0-0.797-0.035-1.479-0.105-2.045s-0.156-1.004-0.258-1.312
		s-0.232-0.549-0.393-0.721s-0.311-0.279-0.451-0.322s-0.312-0.064-0.516-0.064c-0.211,0-0.398,0.029-0.562,0.088
		s-0.34,0.172-0.527,0.34s-0.344,0.441-0.469,0.82s-0.203,0.854-0.234,1.424v0.082h-1.828c0.094-1.227,0.455-2.189,1.084-2.889
		s1.455-1.049,2.479-1.049c0.57,0,1.074,0.092,1.512,0.275s0.783,0.418,1.037,0.703s0.459,0.627,0.615,1.025s0.262,0.785,0.316,1.16
		s0.082,0.777,0.082,1.207v6.75c0,0.492,0.018,1.008,0.053,1.547s0.072,0.953,0.111,1.242l0.047,0.445H113.45z M113.098,20.235
		v-4.945c-0.57,0.398-1.02,0.719-1.348,0.961s-0.674,0.525-1.037,0.85s-0.637,0.619-0.82,0.885s-0.336,0.568-0.457,0.908
		s-0.182,0.697-0.182,1.072c0,0.672,0.141,1.17,0.422,1.494s0.613,0.486,0.996,0.486c0.445,0,0.896-0.16,1.354-0.48
		S112.841,20.735,113.098,20.235z"/>
	<path d="M117.317,16.438v-0.727c0-0.625,0.004-1.104,0.012-1.436s0.035-0.785,0.082-1.359s0.115-1.021,0.205-1.342
		s0.229-0.688,0.416-1.102s0.414-0.729,0.68-0.943s0.605-0.4,1.02-0.557s0.887-0.234,1.418-0.234c0.539,0,1.014,0.088,1.424,0.264
		s0.742,0.404,0.996,0.686s0.463,0.637,0.627,1.066s0.281,0.859,0.352,1.289s0.121,0.922,0.152,1.477
		c0,0.016,0.002,0.037,0.006,0.064s0.006,0.049,0.006,0.064h-1.758v-0.105c-0.047-1.32-0.201-2.254-0.463-2.801
		s-0.709-0.82-1.342-0.82c-0.305,0-0.568,0.043-0.791,0.129s-0.41,0.238-0.562,0.457s-0.275,0.467-0.369,0.744
		s-0.168,0.652-0.223,1.125s-0.09,0.959-0.105,1.459s-0.023,1.125-0.023,1.875v0.727c0,2.195,0.137,3.709,0.41,4.541
		s0.828,1.248,1.664,1.248c0.617,0,1.057-0.281,1.318-0.844s0.424-1.527,0.486-2.895v-0.117h1.77v0.082
		c-0.023,0.594-0.068,1.115-0.135,1.564s-0.18,0.896-0.34,1.342s-0.367,0.811-0.621,1.096s-0.59,0.516-1.008,0.691
		s-0.908,0.264-1.471,0.264c-0.469,0-0.891-0.047-1.266-0.141s-0.693-0.25-0.955-0.469s-0.488-0.436-0.68-0.65
		s-0.344-0.521-0.457-0.92s-0.203-0.738-0.27-1.02s-0.115-0.684-0.146-1.207s-0.049-0.936-0.053-1.236
		S117.317,17.024,117.317,16.438z"/>
	<path d="M127.044,23.094V2.926h1.758v12.785l4.383-6.656h1.98l-3.363,5.32l3.34,8.719h-1.84l-2.754-7.652l-1.746,2.145v5.508
		H127.044z"/>
</g>
</svg>
