<?xml version="1.0" encoding="utf-8"?>
<!-- Generator: Adobe Illustrator 21.1.0, SVG Export Plug-In . SVG Version: 6.00 Build 0)  -->
<svg version="1.0" id="Layer_1" xmlns="http://www.w3.org/2000/svg" xmlns:xlink="http://www.w3.org/1999/xlink" x="0px" y="0px"
	 viewBox="0 0 773 130" enable-background="new 0 0 773 130" xml:space="preserve">
<g>
	<path fill="#FFFFFF" d="M182.7,20.6c-2.1-7.9-8.4-14.2-16.3-16.3c-14.4-3.9-72-3.9-72-3.9s-57.6,0-72,3.9
		C14.5,6.5,8.3,12.7,6.1,20.6C2.3,35,2.3,65,2.3,65s0,30,3.9,44.4c2.1,7.9,8.4,14.2,16.3,16.3c14.4,3.9,72,3.9,72,3.9s57.6,0,72-3.9
		c7.9-2.1,14.2-8.4,16.3-16.3c3.9-14.4,3.9-44.4,3.9-44.4S186.6,35,182.7,20.6z M76,92.6V37.4L123.9,65L76,92.6z"/>
	<g>
		<path fill="#FFFFFF" d="M640.7,120.2l-11.9-47.8c-1.6,0.1-3.3,0.3-5.1,0.3h-2v47.6H604V9.7h23.1c22.5,0,29.5,10.3,29.5,30.2v2.8
			c0,11.9-4.5,20.3-12.7,25.2l3.4,9.9l12.4,42.6H640.7z M624.7,60.7c10,0,13.6-6.1,13.6-17.8v-2.6c0-12.9-3.2-17.1-13.3-17.1h-3.3
			v37.6H624.7z"/>
		<path fill="#FFFFFF" d="M682,86V90c0,14.2,0.8,19.1,6.9,19.1c5.8,0,7.1-4.5,7.2-13.7l15.7,0.9c1.2,17.4-7.9,25.2-23.3,25.2
			c-18.7,0-24.2-12.3-24.2-34.5V72.9c0-23.5,6.2-34.9,24.8-34.9c18.7,0,23.5,9.8,23.5,34.1V86H682z M682,69.4v5.8h13.3v-5.8
			c0-14.9-1.1-19.1-6.7-19.1S682,54.6,682,69.4z"/>
		<path fill="#FFFFFF" d="M753.2,5.6l0,40.8c-3.1-5.3-8.9-8.3-15.4-8.3c-12.3,0-17.9,10.9-17.9,35.1v12.8c0,26.6,4.3,35.7,17.1,35.7
			c7.8,0,14.6-5.4,17.1-12.8h0.3l2.2,11.5h14.1V5.6H753.2z M753.2,100.9c-1.3,4.7-4.6,7.8-8,7.4c-5.4,0-7-5.3-7-23.7V74.1
			c0-17.5,2-23.1,7.8-23.1c2.9,0,5.7,1.3,7.2,4.2V100.9z"/>
	</g>
	<g>
		<g>
			<path fill="#FFFFFF" d="M269.8,117.9c-3.6-2.5-6.2-6.3-7.8-11.5c-1.5-5.2-2.3-12.1-2.3-20.7V74c0-8.7,0.9-15.7,2.6-21
				c1.8-5.3,4.5-9.1,8.2-11.5c3.7-2.4,8.6-3.6,14.7-3.6c6,0,10.8,1.2,14.4,3.7c3.6,2.5,6.2,6.3,7.9,11.5c1.7,5.2,2.5,12.2,2.5,20.9
				v11.7c0,8.6-0.8,15.5-2.4,20.8c-1.6,5.2-4.3,9-7.9,11.5c-3.6,2.4-8.6,3.6-14.8,3.6C278.4,121.6,273.4,120.3,269.8,117.9z
				 M290.2,105.2c1-2.6,1.5-6.9,1.5-12.9V67.1c0-5.8-0.5-10-1.5-12.7c-1-2.7-2.8-4-5.3-4c-2.5,0-4.2,1.3-5.2,4
				c-1,2.7-1.5,6.9-1.5,12.7v25.2c0,6,0.5,10.3,1.4,12.9c1,2.6,2.7,4,5.3,4C287.4,109.2,289.2,107.9,290.2,105.2z"/>
			<path fill="#FFFFFF" d="M549.7,85.9V90c0,5.2,0.2,9.1,0.5,11.7c0.3,2.6,0.9,4.5,1.9,5.7c1,1.2,2.5,1.8,4.5,1.8
				c2.7,0,4.6-1.1,5.6-3.2c1-2.1,1.6-5.6,1.6-10.5l15.7,0.9c0.1,0.7,0.1,1.7,0.1,2.9c0,7.5-2,13-6.1,16.7s-9.9,5.5-17.3,5.5
				c-9,0-15.2-2.8-18.8-8.4c-3.6-5.6-5.4-14.3-5.4-26.1V72.9c0-12.1,1.9-21,5.6-26.6c3.7-5.6,10.1-8.4,19.2-8.4
				c6.2,0,11,1.1,14.4,3.4c3.3,2.3,5.7,5.8,7.1,10.7c1.4,4.8,2,11.5,2,20v13.8H549.7z M552,51.9c-0.9,1.1-1.5,3-1.8,5.6
				c-0.3,2.6-0.5,6.5-0.5,11.8v5.8H563v-5.8c0-5.2-0.2-9.1-0.5-11.8c-0.4-2.7-1-4.6-1.9-5.7c-0.9-1.1-2.4-1.6-4.3-1.6
				C554.3,50.2,552.9,50.8,552,51.9z"/>
			<path fill="#FFFFFF" d="M225.5,84.4L204.8,9.7h18.1l7.2,33.9c1.8,8.3,3.2,15.5,4.1,21.3h0.5c0.6-4.2,2-11.3,4.1-21.2l7.5-34h18.1
				l-21,74.7v35.8h-17.9V84.4z"/>
			<path fill="#FFFFFF" d="M368.8,39.5v80.8h-14.2l-1.6-9.9h-0.4c-3.9,7.5-9.7,11.2-17.4,11.2c-5.4,0-9.3-1.8-11.9-5.3
				c-2.5-3.5-3.8-9-3.8-16.5V39.5h18.2v59.3c0,3.6,0.4,6.2,1.2,7.7c0.8,1.5,2.1,2.3,4,2.3c1.6,0,3.1-0.5,4.5-1.5
				c1.5-1,2.5-2.2,3.2-3.7V39.5H368.8z"/>
			<path fill="#FFFFFF" d="M462,39.5v80.8h-14.2l-1.6-9.9h-0.4c-3.9,7.5-9.7,11.2-17.4,11.2c-5.4,0-9.3-1.8-11.9-5.3
				c-2.5-3.5-3.8-9-3.8-16.5V39.5h18.2v59.3c0,3.6,0.4,6.2,1.2,7.7c0.8,1.5,2.1,2.3,4,2.3c1.6,0,3.1-0.5,4.5-1.5
				c1.5-1,2.5-2.2,3.2-3.7V39.5H462z"/>
			<path fill="#FFFFFF" d="M418.2,24.3h-18.1v95.9h-17.8V24.3h-18.1V9.7h53.9V24.3z"/>
			<path fill="#FFFFFF" d="M522.2,52.4c-1.1-5.1-2.9-8.8-5.3-11.1c-2.5-2.3-5.8-3.4-10.1-3.4c-3.3,0-6.5,0.9-9.4,2.8
				c-2.9,1.9-5.1,4.4-6.7,7.4h-0.1l0-42.6H473v114.7h15l1.8-7.6h0.4c1.4,2.7,3.5,4.9,6.3,6.5c2.8,1.6,5.9,2.4,9.4,2.4
				c6.1,0,10.7-2.8,13.6-8.5c2.9-5.7,4.3-14.5,4.3-26.6V73.6C523.9,64.5,523.3,57.5,522.2,52.4z M505.6,85.3
				c0,5.9-0.2,10.5-0.7,13.8c-0.5,3.3-1.3,5.7-2.4,7.1c-1.1,1.4-2.7,2.1-4.6,2.1c-1.5,0-2.9-0.4-4.2-1.1c-1.3-0.7-2.3-1.8-3.1-3.2
				V58.3c0.6-2.2,1.7-4,3.2-5.4c1.5-1.4,3.1-2.1,4.9-2.1c1.8,0,3.3,0.7,4.3,2.2c1,1.4,1.7,3.9,2.1,7.3c0.4,3.4,0.6,8.3,0.6,14.6
				V85.3z"/>
		</g>
	</g>
</g>
</svg>
