<svg xmlns="http://www.w3.org/2000/svg" width="110" height="23" viewBox="0 0 110 23"><title>Slice 1</title><path d="M76.53 7.05h1.82v10.167h-1.973v-8.35h-3.175v8.35h-1.998v-8.35h-2.15V7.05h2.15V4.322c0-2.116 1.508-3.49 3.915-3.49.724 0 1.238.083 1.73.274l-.75 1.8c-.28-.126-.583-.17-.98-.17-1.076 0-1.918.573-1.918 1.78V7.05h3.328zm31.846-.205c-1.2 0-2.87.668-3.34 1.855l.013-1.675h-1.855v10.147h1.84v-5.447c0-1.907 1.58-3.062 3.062-3.062.413 0 .78.04 1.07.122.04.012.118.03.118.03L110 7.1c-.447-.17-.7-.255-1.407-.255h-.217zm-15.12 9.168c-.957-1.02-1.436-2.234-1.436-3.792 0-1.473.465-2.74 1.396-3.802.93-1.06 2.12-1.592 3.566-1.592 1.502 0 2.704.49 3.607 1.468.9.978 1.353 2.287 1.353 3.927l-.02.353h-8c.054 1.02.395 1.752 1.022 2.344.627.593 1.36.89 2.202.89 1.364 0 2.288-.58 2.77-1.737l1.695.703c-.33.785-.875 1.443-1.633 1.974-.76.53-1.69.796-2.792.796-1.53 0-2.773-.51-3.73-1.53zm6.46-5.01c-.04-.58-.306-1.13-.795-1.655-.488-.524-1.215-.785-2.18-.785-.703 0-1.312.22-1.83.66-.516.442-.87 1.035-1.064 1.78h5.87zM82.42 8.138V2.69h-1.937v14.52h1.937v-.987c.898.832 2.075 1.336 3.364 1.336 2.815 0 5.098-2.41 5.098-5.38 0-2.97-2.283-5.377-5.098-5.377-1.29 0-2.466.504-3.364 1.336zm3.324 7.633c1.798 0 3.256-1.6 3.256-3.573 0-1.972-1.458-3.572-3.256-3.572-1.8 0-3.257 1.6-3.257 3.572 0 1.973 1.458 3.573 3.257 3.573zM8.46.787C3.866.787 0 4.507 0 9.077c0 4.568 3.865 8.288 8.46 8.288 2.482 0 4.354-.81 5.818-2.325 1.505-1.496 1.973-3.6 1.973-5.297 0-.525-.04-1.01-.12-1.415H8.46v2.264h5.452c-.163 1.274-.59 2.204-1.24 2.85-.794.79-2.034 1.658-4.21 1.658-3.357 0-5.98-2.688-5.98-6.024S5.105 3.05 8.462 3.05c1.81 0 3.13.71 4.108 1.62l1.607-1.598C12.814 1.778 11.004.787 8.46.787zM22.347 6.73c-2.928 0-5.313 2.27-5.313 5.396 0 3.106 2.385 5.395 5.313 5.395 2.927 0 5.312-2.288 5.312-5.394 0-3.127-2.385-5.396-5.312-5.396zm0 8.666c-1.604 0-2.988-1.35-2.988-3.27 0-1.942 1.384-3.27 2.988-3.27 1.603 0 2.987 1.328 2.987 3.27 0 1.92-1.384 3.27-2.987 3.27zM33.91 6.73c-2.928 0-5.314 2.27-5.314 5.396 0 3.106 2.386 5.395 5.313 5.395 2.926 0 5.312-2.288 5.312-5.394 0-3.127-2.386-5.396-5.313-5.396zm0 8.666c-1.605 0-2.988-1.35-2.988-3.27 0-1.942 1.383-3.27 2.987-3.27 1.603 0 2.986 1.328 2.986 3.27 0 1.92-1.383 3.27-2.987 3.27zM45.393 6.73c-2.65 0-5.078 2.348-5.078 5.363 0 2.996 2.428 5.323 5.078 5.323 1.265 0 2.268-.566 2.79-1.214h.08v.77c0 2.043-1.083 3.136-2.83 3.136-1.425 0-2.308-1.032-2.67-1.902l-2.027.85c.582 1.416 2.128 3.157 4.697 3.157 2.73 0 5.04-1.62 5.04-5.566V7.054h-2.21v.87h-.08c-.522-.627-1.525-1.194-2.79-1.194zm.2 8.58c-1.605 0-2.95-1.355-2.95-3.217 0-1.882 1.345-3.258 2.95-3.258 1.587 0 2.83 1.376 2.83 3.258 0 1.862-1.243 3.218-2.83 3.218zm6.598-13.897h2.343v15.795h-2.343V1.413zm8.58 5.317c-2.794 0-5.115 2.187-5.115 5.396 0 3.024 2.3 5.395 5.38 5.395 2.485 0 3.923-1.51 4.518-2.39l-1.848-1.226c-.616.9-1.458 1.492-2.67 1.492-1.21 0-2.074-.552-2.628-1.635l7.248-2.983-.246-.613c-.452-1.206-1.828-3.434-4.64-3.434zm-2.753 5.232c-.063-2.085 1.62-3.147 2.833-3.147.944 0 1.745.47 2.012 1.144L58.02 11.96z" fill="#fff" fill-rule="evenodd"/></svg>